<?xml version="1.0" standalone="no"?>
<!DOCTYPE svg PUBLIC "-//W3C//DTD SVG 20010904//EN"
 "http://www.w3.org/TR/2001/REC-SVG-20010904/DTD/svg10.dtd">
<svg version="1.0" xmlns="http://www.w3.org/2000/svg"
 width="640.000000pt" height="640.000000pt" viewBox="0 0 640.000000 640.000000"
 preserveAspectRatio="xMidYMid meet">
<metadata>
Created by potrace 1.14, written by Peter Selinger 2001-2017
</metadata>
<g transform="translate(0.000000,640.000000) scale(0.100000,-0.100000)"
fill="#000000" stroke="none">
<path d="M2782 6215 c-208 -37 -331 -80 -456 -160 -165 -105 -191 -221 -68
-299 91 -57 207 -65 517 -37 305 28 509 68 592 117 54 31 120 107 134 154 9
30 8 42 -4 66 -84 161 -359 222 -715 159z m430 -85 c73 -22 122 -52 151 -92
19 -25 19 -28 3 -52 -60 -92 -308 -146 -730 -160 -278 -9 -358 30 -270 133 92
107 371 187 665 190 91 1 131 -3 181 -19z"/>
<path d="M3577 5770 l-104 -99 -99 21 c-226 49 -557 19 -754 -68 -97 -42 -153
-75 -279 -161 l-94 -64 -42 14 c-65 22 -162 102 -193 158 -15 27 -32 49 -38
49 -30 0 -56 -351 -36 -474 9 -57 8 -61 -33 -150 -23 -50 -55 -130 -71 -178
-22 -68 -32 -88 -46 -88 -10 0 -45 -14 -78 -30 -33 -17 -77 -34 -98 -38 -20
-4 -36 -12 -34 -16 5 -11 -41 -42 -108 -72 -38 -17 -51 -27 -41 -33 16 -10
-30 -46 -72 -56 -27 -7 -38 -25 -15 -25 23 0 -38 -51 -77 -65 -37 -12 -60 -35
-36 -35 22 0 -3 -32 -40 -51 -40 -20 -49 -34 -27 -41 7 -3 -7 -18 -30 -36 -24
-17 -42 -34 -40 -39 2 -4 6 -7 11 -5 12 4 9 -3 -48 -93 -30 -49 -55 -96 -55
-106 0 -9 -3 -24 -6 -33 -13 -35 15 -13 44 33 17 27 44 57 61 65 30 16 31 16
37 -9 10 -38 -3 -88 -55 -215 -26 -63 -57 -140 -69 -170 -100 -258 -109 -639
-24 -950 82 -298 367 -648 727 -891 81 -54 323 -199 334 -199 3 0 25 -40 48
-88 22 -48 55 -106 71 -128 34 -46 115 -97 207 -130 48 -17 63 -28 77 -55 24
-47 111 -322 143 -449 14 -58 39 -148 55 -200 16 -52 39 -139 50 -193 38 -178
66 -211 175 -204 33 2 73 10 88 17 24 12 34 12 70 -1 53 -19 149 -17 181 4 29
20 47 66 81 222 90 401 126 525 186 630 22 39 44 77 48 85 9 17 191 113 271
143 79 29 384 186 466 239 97 62 200 155 279 249 78 94 114 119 172 119 36 0
46 -5 71 -36 28 -34 62 -127 62 -171 0 -32 56 -134 95 -174 41 -42 78 -51 150
-37 43 9 59 19 113 77 59 61 132 147 174 203 17 22 18 22 32 4 12 -14 14 -36
9 -95 -4 -61 -2 -84 11 -109 9 -18 21 -32 26 -32 5 0 14 -19 20 -41 13 -49 23
-42 40 26 12 47 14 90 8 175 -3 32 0 35 25 38 30 4 77 -21 77 -40 0 -25 54
-80 98 -100 26 -12 63 -34 83 -50 33 -25 59 -36 59 -23 0 13 -75 173 -89 189
-9 10 -40 29 -68 42 -51 23 -80 55 -68 73 3 5 32 3 66 -5 72 -17 118 -8 163
31 16 14 46 30 68 35 67 19 40 47 -47 51 -112 5 -132 3 -173 -19 -70 -36 -150
-24 -177 28 -13 26 -13 30 1 44 8 9 19 16 24 16 22 0 133 94 146 125 7 18 27
43 44 55 36 26 38 40 5 40 -34 0 -127 -25 -164 -45 -31 -16 -91 -88 -91 -110
0 -6 -13 -23 -28 -38 -21 -21 -38 -27 -70 -27 -80 0 -139 -46 -232 -178 -24
-34 -47 -62 -52 -62 -20 0 -100 189 -148 350 -71 238 -91 407 -66 539 9 46 16
110 16 142 0 33 4 59 10 59 6 0 10 14 10 31 0 25 3 29 13 20 17 -14 27 -4 27
26 0 13 4 22 9 19 12 -8 21 18 14 43 -4 17 -2 20 11 15 21 -8 21 17 0 57 -15
29 -15 30 5 20 30 -16 37 6 11 34 -14 15 -18 25 -11 30 20 12 12 24 -25 37
-29 10 -44 27 -80 88 -106 185 -315 379 -406 380 -10 0 -18 6 -18 13 0 16 37
57 50 57 6 0 10 5 10 10 0 6 -7 10 -16 10 -9 0 -23 8 -30 18 -12 16 -13 16
-19 -3 -4 -11 -13 -32 -21 -47 -8 -14 -14 -34 -14 -45 0 -10 -13 -26 -30 -35
-41 -23 -87 -119 -104 -220 -18 -102 -25 -466 -9 -476 6 -4 14 -22 18 -41 4
-20 14 -35 25 -38 10 -3 21 -16 24 -29 4 -15 14 -24 26 -24 10 0 22 -9 25 -20
8 -26 22 -25 31 2 6 20 7 19 20 -10 13 -32 34 -43 34 -19 0 6 5 4 11 -6 12
-20 7 -32 -70 -157 -81 -132 -97 -139 -207 -95 -34 14 -96 30 -138 36 l-77 12
18 26 c48 73 68 174 44 220 -9 16 -8 27 4 51 9 16 19 30 24 30 14 0 83 122 88
157 7 39 4 40 -45 10 -20 -13 -45 -26 -55 -30 -18 -7 -39 -47 -56 -114 -12
-45 -26 -52 -61 -33 -27 14 -83 98 -76 115 8 22 -14 86 -40 111 -13 14 -28 33
-34 44 -16 30 -28 24 -40 -22 -16 -58 6 -158 35 -158 6 0 24 -13 39 -29 32
-33 30 -73 -3 -91 -16 -8 -26 -5 -50 16 -24 20 -49 28 -107 36 -41 6 -78 7
-82 3 -4 -3 14 -26 40 -50 40 -37 54 -44 105 -50 33 -3 65 -10 72 -15 25 -15
1 -29 -52 -31 -29 -1 -71 -2 -94 -3 -60 -2 -57 -28 7 -61 47 -24 115 -22 151
4 15 12 34 21 42 21 7 0 18 5 25 12 7 7 -8 -28 -32 -78 -98 -201 -91 -219 91
-240 120 -13 185 -40 203 -84 15 -37 4 -56 -82 -141 -62 -61 -118 -97 -174
-109 -35 -8 -31 -15 -89 150 -43 122 -126 328 -204 503 -33 76 -61 141 -61
145 0 4 -18 36 -40 72 -22 36 -40 70 -40 75 0 6 53 36 118 67 147 72 392 254
521 387 98 102 224 335 263 486 25 99 36 432 19 578 -25 218 -72 390 -143 534
-52 104 -180 274 -256 340 -86 75 -204 158 -255 179 l-44 18 -7 130 c-7 123
-16 166 -36 166 -4 0 -55 -45 -113 -100z m61 -583 c23 -53 42 -65 77 -49 28
13 33 37 23 112 -4 30 -6 56 -4 57 6 6 132 -84 183 -131 124 -112 244 -316
297 -501 54 -190 79 -500 52 -653 -33 -188 -98 -333 -215 -480 -69 -85 -106
-120 -226 -210 -145 -109 -250 -164 -410 -214 -149 -47 -389 -61 -578 -33 -88
13 -118 23 -224 75 -281 137 -551 440 -631 705 -31 103 -42 185 -42 325 0 262
45 472 145 671 l44 86 -34 84 c-19 46 -39 115 -45 153 -10 65 -4 197 9 179 8
-12 109 -87 190 -140 91 -61 120 -59 200 12 135 121 257 183 422 215 160 31
268 36 381 15 l97 -17 -15 -30 c-24 -46 -5 -54 52 -24 37 18 69 50 129 126
l80 101 11 -193 c9 -158 15 -202 32 -241z m-1851 -543 c-34 -137 -42 -204 -42
-364 1 -180 18 -290 76 -479 59 -190 136 -316 297 -482 150 -156 289 -258 414
-304 71 -26 77 -38 40 -83 -57 -67 -159 -225 -231 -357 -82 -150 -143 -299
-177 -433 -13 -51 -26 -98 -30 -103 -14 -23 -149 30 -159 62 -8 24 -31 19 -29
-5 2 -24 -11 -20 -52 19 -42 40 -44 41 -44 20 0 -8 -3 -15 -6 -15 -16 0 -53
26 -81 59 -24 27 -32 32 -33 18 0 -28 -36 -4 -48 33 -12 33 -29 40 -34 13 -2
-13 -9 -7 -21 20 -17 35 -37 50 -37 26 0 -24 -20 4 -26 37 -6 31 -10 35 -29
30 -23 -6 -27 1 -49 67 -4 13 -12 16 -25 12 -16 -5 -20 0 -23 22 -2 19 -8 28
-20 27 -19 -2 -46 49 -55 102 -5 33 -27 47 -36 22 -5 -17 -37 45 -37 73 0 15
-5 19 -15 15 -19 -7 -46 34 -55 82 -4 28 -10 36 -23 34 -18 -3 -21 8 -17 62 1
24 -1 28 -15 22 -15 -6 -17 -1 -12 33 4 35 2 40 -16 43 -53 8 -88 248 -68 473
10 117 19 160 52 258 39 115 86 204 137 260 14 15 30 27 35 27 10 0 4 -99 -9
-139 -5 -18 -4 -23 7 -19 17 5 118 148 119 168 0 12 3 11 11 -3 15 -25 29 -11
23 22 -7 31 26 118 33 89 8 -35 23 -17 23 27 0 51 27 116 45 109 8 -3 14 9 18
33 6 46 49 143 54 126 9 -27 23 -11 23 25 1 46 22 87 46 87 13 0 20 11 26 39
8 39 76 161 85 153 2 -3 -2 -31 -10 -63z m1518 -1728 c86 -22 105 -31 136 -64
57 -57 163 -279 234 -490 80 -237 140 -406 149 -420 10 -16 46 -243 46 -292 0
-25 -5 -62 -10 -82 -12 -43 -107 -148 -134 -148 -42 0 -66 46 -87 168 -26 156
-69 383 -75 405 -3 9 -12 17 -19 17 -9 0 -16 17 -20 48 -4 26 -25 117 -46 202
-21 85 -39 176 -39 202 0 51 -8 58 -32 31 -14 -16 -12 -36 22 -203 20 -102 40
-204 44 -227 l6 -43 -47 -1 c-27 -1 -229 -3 -451 -5 l-403 -3 6 57 c4 31 18
131 31 222 26 166 24 210 -8 210 -9 0 -12 -14 -10 -47 4 -51 -60 -396 -82
-448 -36 -84 -49 -152 -77 -415 -17 -159 -20 -162 -97 -94 -45 41 -71 74 -98
129 -53 107 -56 172 -14 335 51 201 101 343 187 529 51 110 226 350 281 386
114 74 402 93 607 41z m-87 -1015 l92 -6 -82 -65 c-46 -36 -113 -93 -149 -127
-37 -35 -75 -63 -85 -63 -16 0 -256 189 -319 251 -19 19 -17 19 215 18 129 -1
277 -4 328 -8z m207 -405 l0 -263 -155 -7 c-85 -3 -264 -6 -396 -6 l-242 0 -6
68 c-3 37 -8 143 -12 236 -6 142 -4 167 7 161 8 -5 70 -56 138 -114 152 -130
203 -170 216 -171 6 0 47 30 91 68 45 37 107 88 140 114 103 83 219 177 219
177 0 1 0 -118 0 -263z m-459 -778 c-2 -189 -7 -358 -11 -377 -6 -25 -16 -37
-41 -47 -88 -37 -92 -27 -140 336 -14 108 -59 310 -83 373 -22 58 -24 57 133
57 l144 0 -2 -342z m354 339 c0 -1 -18 -92 -41 -202 -22 -110 -53 -276 -69
-369 -16 -92 -35 -175 -41 -182 -15 -18 -90 -18 -115 0 -18 14 -19 31 -22 385
l-3 371 146 0 c80 0 145 -1 145 -3z"/>
<path d="M3379 4630 c-65 -35 -74 -59 -72 -196 3 -161 24 -254 70 -304 39 -45
80 -57 120 -38 35 16 69 77 77 135 6 44 5 47 -38 85 -59 51 -75 114 -59 227 9
58 9 79 0 88 -22 22 -61 23 -98 3z"/>
<path d="M2293 4590 c-52 -31 -58 -52 -57 -190 1 -166 22 -253 73 -309 31 -33
45 -41 73 -41 63 0 105 54 122 157 5 28 1 36 -30 59 -19 15 -40 36 -46 47 -16
32 -27 155 -18 212 6 39 5 54 -8 68 -20 23 -69 22 -109 -3z"/>
<path d="M3217 3600 c-14 -11 -56 -35 -94 -53 -62 -29 -76 -32 -163 -31 -78 0
-108 5 -170 28 -97 36 -145 43 -153 23 -14 -36 69 -99 178 -137 139 -48 331
-3 443 103 34 33 40 55 20 75 -17 17 -31 15 -61 -8z"/>
</g>
</svg>
